# xmcd CD database file
# Copyright (C) 1993-1998 Ti Kan
# 
# Track frame offsets:
#     182
#     24362
#     36025
#     47057
#     66450
#     78695
#     91210
#     102327
#     112655
#     122310
#     133627
#     148890
#     162635
#     175407
# 
# Disc length: 2501 seconds
# 
# Revision: 1
# Processed by: cddbd v1.4b41PL1 Copyright (c) Steve Scherf et al.
# Submitted via: DiscPlay 4.0.4
# 
DISCID=bd09c30e
DTITLE=Dinah Washington - Dinah Washington
DYEAR=1900
DGENRE=
TTITLE0=I've Got You Under My Skin
TTITLE1=Ain't Misbehavin'
TTITLE2=Such A Night
TTITLE3=Manhattan
TTITLE4=Unforgettable
TTITLE5=Baby (You've Got What It Takes)
TTITLE6=A Rockin'Good Way (To Mess Around And Fall In Love)
TTITLE7=Early Every Morning
TTITLE8=September In The Rain
TTITLE9=What A Diff'rence A Day Makes
TTITLE10=Smoke Gets In Your Eyes
TTITLE11=Harbour Lights
TTITLE12=Trouble In Mind
TTITLE13=Teach Me Tonight
EXTD=
EXTT0=
EXTT1=
EXTT2=
EXTT3=
EXTT4=
EXTT5=
EXTT6=
EXTT7=
EXTT8=
EXTT9=
EXTT10=
EXTT11=
EXTT12=
EXTT13=
PLAYORDER=
